<svg width="14" height="14" viewBox="0 0 14 14" fill="none" xmlns="http://www.w3.org/2000/svg">
<g clip-path="url(#clip0_1236_3845)">
<path d="M7 5V8" stroke="#000001" stroke-linecap="round" stroke-linejoin="round"/>
<path d="M7 11.5C7.27614 11.5 7.5 11.2761 7.5 11C7.5 10.7239 7.27614 10.5 7 10.5C6.72386 10.5 6.5 10.7239 6.5 11C6.5 11.2761 6.72386 11.5 7 11.5Z" stroke="#000001" stroke-linecap="round" stroke-linejoin="round"/>
<path d="M7.89 1.05002C7.80608 0.886219 7.67859 0.748754 7.52156 0.652764C7.36453 0.556773 7.18405 0.505981 7 0.505981C6.81596 0.505981 6.63548 0.556773 6.47845 0.652764C6.32142 0.748754 6.19392 0.886219 6.11 1.05002L0.610003 12.05C0.533293 12.2023 0.496771 12.3716 0.503905 12.5419C0.51104 12.7122 0.561593 12.8779 0.650766 13.0231C0.739938 13.1684 0.864769 13.2885 1.0134 13.372C1.16204 13.4554 1.32954 13.4995 1.5 13.5H12.5C12.6705 13.4995 12.838 13.4554 12.9866 13.372C13.1352 13.2885 13.2601 13.1684 13.3492 13.0231C13.4384 12.8779 13.489 12.7122 13.4961 12.5419C13.5032 12.3716 13.4667 12.2023 13.39 12.05L7.89 1.05002Z" stroke="#000001" stroke-linecap="round" stroke-linejoin="round"/>
</g>
<defs>
<clipPath id="clip0_1236_3845">
<rect width="14" height="14" fill="white"/>
</clipPath>
</defs>
</svg>
